<?xml version="1.0" encoding="UTF-8"?><svg xmlns="http://www.w3.org/2000/svg" xmlns:xlink="http://www.w3.org/1999/xlink" height="200.0" preserveAspectRatio="xMidYMid meet" version="1.0" viewBox="95.7 112.4 235.7 200.0" width="235.7" zoomAndPan="magnify"><g id="change1_1"><path d="M128.68,311.63h165.06c16.14-15.82,27.29-35.96,30.67-57.4c6.27-39.77-3.79-90.4-44.68-112.51 c-36.88-19.94-82.63-20.01-121.38-4.94c-32.31,12.57-54.6,56.49-58.32,85.54c-3.57,27.84,2.82,57.15,20.49,80.06 C123.02,305.64,125.75,308.72,128.68,311.63z" fill="#fff" stroke="#335894" stroke-linecap="round" stroke-linejoin="round" stroke-miterlimit="10" stroke-width="1.5"/></g><g id="change2_1"><path d="M299.71,171.11c-3.84-1.09-7.76-1.89-11.74-2.21c-5.99-0.48-11.95,0.13-17.81,1.38 c-7.37,1.56-14.5,3.93-21.65,6.25c-7.32,2.37-14.8,4.25-22.4,5.43c-7.26,1.12-14.59,1.63-21.93,1.56 c-7.79-0.07-15.51-0.85-23.24-1.68c-12.66-1.36-25.68-2.47-38.32-0.32c-8.33,1.41-16.09,4.36-23.31,8.43 c-5.28,11.15-8.72,22.51-9.95,32.1c-3.27,25.53,2.59,52.41,18.79,73.42c2.3,2.98,4.81,5.81,7.49,8.48h151.37 c14.8-14.51,25.03-32.98,28.13-52.64C319.24,225.27,315.71,194.16,299.71,171.11z" fill="#a2d9ee"/></g><g id="change1_2"><path d="M138.4,141.78c2.78,1.96,7.2,1.16,10.49,1.21c19.41,0.3,40.12-0.69,58.89-1.32c29.73-1,43.94-1.27,71.03-2.86 c2.38-0.14,4.9,0.01,6.94-1.43c3.9-2.74,4.35-9.1,4.35-14.48c0-1.95-0.02-4.03-0.9-5.68c-1.48-2.8-4.68-3.4-7.47-3.46 c-43.44-0.93-83.96,1.75-129.56,3.01c-4.29,0.12-10.2-0.2-14.52,1.3c-2.8,0.97-2.64,5.07-2.5,7.83c0.2,3.95-0.09,8.97,1,12.67 C136.58,140.02,137.38,141.06,138.4,141.78z" fill="#fff" stroke="#335894" stroke-linecap="round" stroke-linejoin="round" stroke-miterlimit="10" stroke-width="1.5"/></g><g id="change3_1"><path d="M150.43,220.14c9.36-2.81,26.49,15.05,28.64,21.35c3.59,10.52-0.11,22.38-6.62,31.39 c-3.02,4.18-6.7,8-11.3,10.35c-1.05,0.54-2.38,0.98-3.36,0.31c-1.04-0.71-1.04-2.23-0.84-3.47c1.2-7.69,5.46-14.98,4.71-22.73 c-0.44-4.65-2.66-8.92-5.02-12.95c-2.73-4.66-13.36-15.09-10.28-20.75C147.41,221.74,148.81,220.63,150.43,220.14z" fill="#7ac2e2"/></g><path d="M172.46,272.88c-3.02,4.18-6.7,8-11.3,10.35c-1.05,0.54-2.38,0.98-3.36,0.31c-1.04-0.71-1.04-2.23-0.84-3.47 c1.2-7.69,5.46-14.98,4.71-22.73c-0.44-4.65-2.66-8.92-5.02-12.95" fill="none" stroke="#335894" stroke-linecap="round" stroke-linejoin="round" stroke-miterlimit="10" stroke-width="1.5"/><path d="M236.71,207.51c-0.44-1.48-4.22-4.08-5.51-4.92c-4.73-3.1-10.37-5.41-15.95-4.48 c-0.38,0.06-0.84,0.22-0.91,0.6c-0.05,0.28,0.15,0.54,0.34,0.76c2.53,2.92,5.25,5.77,6.9,9.27" fill="none" stroke="#335894" stroke-linecap="round" stroke-linejoin="round" stroke-miterlimit="10" stroke-width="1.5"/><g id="change3_2"><path d="M278.74,229.43c-0.9-0.31-1.77-0.72-2.67-1.02c-0.76-0.25-0.97-1.18-0.57-1.81c0.85-1.34,1.85-2.68,3.02-3.81 c-8.91-11.06-33.07-18.42-50.99-16.42c-15.26,1.7-27.18,7.7-38.87,18.64c-4.23,3.96-11.78,9.89-19.84,24.16 c13.78,13.17,31.63,19.86,48.62,19.13c15.22-0.65,29.14-2.5,42.61-10.1c9.58-5.41,17.42-15.99,19.62-28.5 C279.35,229.62,279.04,229.54,278.74,229.43z" fill="#7ac2e2"/></g><g id="change4_1"><path d="M255.3,222.69c0.03,0.64,0.29,1.27,0.78,1.71c0.72,0.65,1.9,0.81,2.83,0.4c0.93-0.41,1.56-1.36,1.54-2.3 c-0.02-0.91-0.45-2.01-1.45-2.34c-0.91-0.3-1.93-0.11-2.74,0.38C255.59,220.96,255.27,222.03,255.3,222.69z" fill="#335894"/></g><path d="M238.79,208.2c-2.55,15.47,1.53,31.19,5.58,46.34" fill="none" stroke="#335894" stroke-linecap="round" stroke-linejoin="round" stroke-miterlimit="10" stroke-width="1.5"/><path d="M236.89,261.33c-0.36,2.31-2.69,6.14-5.19,9.23c-2.83,3.51-7.64,7.05-12.07,9.09 c-0.55,0.25-1.27,0.33-1.75,0.05c-1.32-0.77,1.39-6.28,1.75-7.51c0.87-2.94,1.56-5.96,1.13-8.91" fill="none" stroke="#335894" stroke-linecap="round" stroke-linejoin="round" stroke-miterlimit="10" stroke-width="1.5"/><path d="M224.31,214.29c1.91,1.46,2.27,4.57,0.74,6.42" fill="none" stroke="#335894" stroke-linecap="round" stroke-linejoin="round" stroke-miterlimit="10" stroke-width="1.5"/><path d="M226.36,232.29c1.91,1.46,2.27,4.57,0.74,6.42" fill="none" stroke="#335894" stroke-linecap="round" stroke-linejoin="round" stroke-miterlimit="10" stroke-width="1.5"/><path d="M206.56,235.5c1.91,1.46,2.27,4.57,0.74,6.42" fill="none" stroke="#335894" stroke-linecap="round" stroke-linejoin="round" stroke-miterlimit="10" stroke-width="1.5"/><path d="M228.41,250.28c1.91,1.46,2.27,4.57,0.74,6.42" fill="none" stroke="#335894" stroke-linecap="round" stroke-linejoin="round" stroke-miterlimit="10" stroke-width="1.5"/><path d="M213.93,225.05c1.96,1.4,2.42,4.49,0.95,6.39" fill="none" stroke="#335894" stroke-linecap="round" stroke-linejoin="round" stroke-miterlimit="10" stroke-width="1.5"/><path d="M216.58,242.97c1.96,1.4,2.42,4.49,0.95,6.39" fill="none" stroke="#335894" stroke-linecap="round" stroke-linejoin="round" stroke-miterlimit="10" stroke-width="1.5"/><path d="M274.33,196.07c-0.09,0.7,0.07,1.44,0.52,2.02c0.65,0.85,1.91,1.25,3.01,0.99c1.1-0.27,1.97-1.18,2.13-2.2 c0.16-1-0.1-2.28-1.13-2.84c-0.93-0.5-2.08-0.5-3.06-0.12C274.99,194.23,274.43,195.33,274.33,196.07z" fill="none" stroke="#335894" stroke-linecap="round" stroke-linejoin="round" stroke-miterlimit="10" stroke-width="1.5"/><path d="M282.95,184.56c-0.13,1,0.1,2.05,0.73,2.86c0.93,1.2,2.72,1.78,4.28,1.4c1.56-0.38,2.79-1.67,3.02-3.13 c0.22-1.42-0.14-3.23-1.6-4.03c-1.32-0.71-2.96-0.72-4.34-0.18C283.88,181.94,283.08,183.52,282.95,184.56z" fill="none" stroke="#335894" stroke-linecap="round" stroke-linejoin="round" stroke-miterlimit="10" stroke-width="1.5"/><path d="M284.99,209.9c-0.06,0.49,0.05,1.01,0.36,1.41c0.46,0.59,1.34,0.88,2.11,0.69c0.77-0.19,1.38-0.82,1.49-1.54 c0.11-0.7-0.07-1.6-0.79-1.99c-0.65-0.35-1.46-0.35-2.14-0.09C285.45,208.61,285.05,209.39,284.99,209.9z" fill="none" stroke="#335894" stroke-linecap="round" stroke-linejoin="round" stroke-miterlimit="10" stroke-width="1.5"/></svg>